HIERARCHY
ROOT Hips
{
	OFFSET	0.00	0.00	0.00
	CHANNELS 6 Xposition Yposition Zposition Zrotation Xrotation Yrotation
	JOINT LeftUpLeg
	{
		OFFSET	 0.126116	-0.065224	 0.014019
		CHANNELS 3 Zrotation Xrotation Yrotation
		JOINT LeftLeg
		{
			OFFSET	 0.000000	 0.569914	 0.000000
			CHANNELS 3 Zrotation Xrotation Yrotation
			JOINT LeftFoot
			{
				OFFSET	 0.000000	 0.544423	 0.000000
				CHANNELS 3 Zrotation Xrotation Yrotation
				JOINT LeftToeBase
				{
					OFFSET	 0.000000	 0.207117	 0.000000
					CHANNELS 3 Zrotation Xrotation Yrotation
					End Site
					{
						OFFSET	 0.000000	 0.207117	 0.000000
					}
				}
			}
		}
	}
	JOINT RightUpLeg
	{
		OFFSET	-0.124023	-0.065224	 0.008373
		CHANNELS 3 Zrotation Xrotation Yrotation
		JOINT RightLeg
		{
			OFFSET	 0.000000	 0.570047	 0.000000
			CHANNELS 3 Zrotation Xrotation Yrotation
			JOINT RightFoot
			{
				OFFSET	 0.000000	 0.544354	 0.000000
				CHANNELS 3 Zrotation Xrotation Yrotation
				JOINT RightToeBase
				{
					OFFSET	 0.000000	 0.207540	 0.000000
					CHANNELS 3 Zrotation Xrotation Yrotation
					End Site
					{
						OFFSET	 0.000000	 0.207540	 0.000000
					}
				}
			}
		}
	}
	JOINT Spine
	{
		OFFSET	 0.000184	 0.117403	 0.007763
		CHANNELS 3 Zrotation Xrotation Yrotation
		JOINT Spine1
		{
			OFFSET	 0.000000	 0.137269	 0.000000
			CHANNELS 3 Zrotation Xrotation Yrotation
			JOINT Spine2
			{
				OFFSET	 0.000000	 0.156879	 0.000000
				CHANNELS 3 Zrotation Xrotation Yrotation
				JOINT LeftShoulder
				{
					OFFSET	 0.080501	 0.160143	 0.002496
					CHANNELS 3 Zrotation Xrotation Yrotation
					JOINT LeftArm
					{
						OFFSET	 0.000000	 0.164363	 0.000000
						CHANNELS 3 Zrotation Xrotation Yrotation
						JOINT LeftForeArm
						{
							OFFSET	 0.000000	 0.364576	 0.000000
							CHANNELS 3 Zrotation Xrotation Yrotation
							JOINT LeftHand
							{
								OFFSET	 0.000000	 0.360812	 0.000000
								CHANNELS 3 Zrotation Xrotation Yrotation
								JOINT LeftHandIndex1
								{
									OFFSET	 0.000000	 0.086006	 0.000000
									CHANNELS 3 Zrotation Xrotation Yrotation
									JOINT LeftHandIndex2
									{
										OFFSET	 0.000000	 0.047237	 0.000000
										CHANNELS 3 Zrotation Xrotation Yrotation
										JOINT LeftHandIndex3
										{
											OFFSET	-0.004284	 0.038165	 0.000551
											CHANNELS 3 Zrotation Xrotation Yrotation
											End Site
											{
												OFFSET	-0.004284	 0.038165	 0.000551
											}
										}
									}
								}
							}
						}
					}
				}
				JOINT Neck
				{
					OFFSET	 0.000000	 0.176489	 0.000000
					CHANNELS 3 Zrotation Xrotation Yrotation
					JOINT Head
					{
						OFFSET	 0.000000	 0.077941	 0.001747
						CHANNELS 3 Zrotation Xrotation Yrotation
						End Site
						{
							OFFSET	 0.000000	 0.077941	 0.001747
						}
					}
				}
				JOINT RightShoulder
				{
					OFFSET	-0.080363	 0.159706	-0.000306
					CHANNELS 3 Zrotation Xrotation Yrotation
					JOINT RightArm
					{
						OFFSET	 0.000000	 0.164196	 0.000000
						CHANNELS 3 Zrotation Xrotation Yrotation
						JOINT RightForeArm
						{
							OFFSET	 0.000000	 0.365611	 0.000000
							CHANNELS 3 Zrotation Xrotation Yrotation
							JOINT RightHand
							{
								OFFSET	 0.000000	 0.360648	 0.000000
								CHANNELS 3 Zrotation Xrotation Yrotation
								JOINT RightHandIndex1
								{
									OFFSET	 0.000000	 0.069977	 0.000000
									CHANNELS 3 Zrotation Xrotation Yrotation
									JOINT RightHandIndex2
									{
										OFFSET	 0.000000	 0.052305	 0.000000
										CHANNELS 3 Zrotation Xrotation Yrotation
										JOINT RightHandIndex3
										{
											OFFSET	 0.009002	 0.042196	 0.000782
											CHANNELS 3 Zrotation Xrotation Yrotation
											End Site
											{
												OFFSET	 0.009002	 0.042196	 0.000782
											}
										}
									}
								}
							}
						}
					}
				}
			}
		}
	}
}
MOTION
Frames:    5
Frame Time: 0.03333334
 0.021682	 1.267466	 0.012172	-0.384233	 3.626054	 178.135500	-177.673600	 4.165958	-14.399210	 3.217198	-15.909430	 3.373350	-5.050286	 68.889530	 5.607251	 1.331492	 28.938720	-2.729976	 178.704800	 6.058200	 17.082390	-5.774467	-18.362530	-7.604737	-2.395663	 71.124780	 1.897051	-1.312042	 28.674770	 2.781586	-0.800999	 4.253931	 2.437711	-0.808726	 4.263301	 0.931961	-0.954438	-0.977948	-4.305771	-113.449300	 4.730939	 92.852230	 16.906310	 57.258320	 30.718560	 5.074462	-0.262193	-0.072248	 1.970775	-10.736310	-4.275578	-6.580301	 5.266122	 0.000000	 0.000000	 0.000000	 0.000000	 0.000000	 0.000000	 0.000000	 3.181304	-0.892783	-0.688778	 3.232484	 0.488033	 0.019082	 114.182400	-4.172182	-88.529270	-10.483480	 48.823190	-45.793670	-26.319850	-0.999339	-0.175127	 9.075822	-6.807077	 31.260560	-0.369880	 10.873130	 0.746433	 11.981670	 9.601770	-2.157272	-8.359320	 3.159339	 0.103672
-0.000844	 1.269463	-0.008615	-0.081426	 3.222724	 178.817700	-178.472100	 3.143004	-14.362440	 3.055995	-15.111530	 2.871372	-5.170760	 69.507270	 6.711258	 1.331492	 28.938720	-2.729976	 177.957700	 4.246204	 17.897000	-5.122683	-16.413380	-6.461026	 2.521786	 70.474520	-1.755415	-1.305359	 28.580640	 2.605024	-1.173404	 3.512885	 1.640576	-1.647196	 3.070321	 0.035517	-1.561086	-1.256552	-4.481698	-113.447000	 5.127161	 93.000300	 12.806300	 55.466930	 32.914420	 5.064479	-0.261736	-0.072269	 3.665460	-9.421259	-8.764015	-6.580301	 5.266122	 0.000000	 0.000000	 0.000000	 0.000000	 0.000000	 0.000000	 0.000000	 3.829051	-0.642087	-0.249853	 3.207575	 1.158522	 0.490833	 114.205900	-4.429716	-88.481540	-60.641270	 2.477669	 45.619290	-92.372220	-2.251133	-2.287739	-9.375237	-12.977690	-34.525200	-0.359781	 10.582450	 0.744568	 11.977790	 9.317316	-2.096066	-8.359142	 3.150339	 0.104224
-0.000837	 1.269462	-0.008599	-0.072875	 3.207759	 178.814500	-178.461600	 3.167735	-14.365840	 3.059792	-15.129450	 2.871264	-5.177973	 69.514790	 6.716746	 1.331492	 28.938720	-2.729976	 177.966700	 4.261650	 17.895650	-5.121824	-16.410770	-6.462562	 2.517104	 70.472110	-1.750117	-1.305359	 28.580650	 2.604839	-1.168243	 3.529933	 1.633523	-1.636475	 2.979325	 0.034241	-1.565304	-1.163624	-4.470683	-113.447100	 5.126769	 93.000230	 12.849120	 55.461510	 32.880910	 5.059258	-0.261494	-0.072291	 3.611011	-9.364040	-8.788915	-6.580301	 5.266122	 0.000000	 0.000000	 0.000000	 0.000000	 0.000000	 0.000000	 0.000000	 3.829690	-0.643556	-0.250052	 3.209761	 1.169331	 0.490548	 114.205800	-4.428933	-88.482090	-60.543620	 2.495553	 45.554480	-92.409960	-2.251067	-2.289296	-9.437610	-12.893780	-34.473800	-0.359781	 10.582440	 0.744568	 11.977790	 9.317312	-2.096065	-8.359142	 3.150337	 0.104224
-0.000822	 1.269462	-0.008587	-0.060855	 3.189060	 178.808800	-178.446500	 3.198558	-14.371830	 3.064828	-15.153270	 2.870156	-5.190678	 69.525170	 6.726900	 1.331492	 28.938720	-2.729976	 177.979600	 4.279717	 17.893240	-5.120170	-16.405780	-6.465942	 2.507539	 70.469370	-1.738960	-1.305361	 28.580650	 2.604433	-1.161678	 3.550367	 1.620792	-1.621895	 2.864425	 0.031309	-1.571405	-1.048918	-4.450900	-113.447100	 5.125906	 93.000020	 12.895060	 55.453030	 32.846900	 5.052386	-0.261114	-0.072322	 3.542469	-9.290101	-8.835990	-6.580301	 5.266122	 0.000000	 0.000000	 0.000000	 0.000000	 0.000000	 0.000000	 0.000000	 3.831089	-0.646765	-0.250488	 3.214752	 1.183606	 0.490355	 114.205500	-4.427225	-88.483340	-60.374770	 2.467073	 45.432710	-92.407280	-2.251073	-2.289109	-9.619487	-12.717300	-34.367600	-0.359781	 10.582430	 0.744568	 11.977790	 9.317304	-2.096064	-8.359142	 3.150333	 0.104224
-0.000803	 1.269462	-0.008584	-0.048656	 3.172689	 178.801500	-178.431000	 3.225595	-14.379670	 3.069692	-15.176100	 2.868395	-5.205672	 69.535570	 6.739148	 1.331492	 28.938720	-2.729976	 177.992900	 4.294620	 17.889650	-5.118223	-16.399890	-6.470448	 2.495164	 70.467180	-1.724355	-1.305363	 28.580670	 2.603903	-1.155709	 3.567942	 1.606201	-1.607325	 2.761135	 0.027968	-1.577872	-0.947493	-4.427374	-113.447100	 5.124787	 92.999780	 12.929890	 55.443300	 32.823680	 5.046371	-0.260817	-0.072354	 3.480002	-9.220765	-8.893539	-6.580301	 5.266122	 0.000000	 0.000000	 0.000000	 0.000000	 0.000000	 0.000000	 0.000000	 3.832920	-0.650964	-0.251058	 3.221389	 1.197329	 0.490274	 114.205200	-4.425015	-88.484950	-60.177190	 2.391489	 45.286220	-92.353290	-2.251169	-2.287055	-9.888085	-12.490130	-34.230400	-0.359781	 10.582420	 0.744568	 11.977790	 9.317293	-2.096061	-8.359142	 3.150327	 0.104225
